# xmcd
#
# Track frame offsets: 
#        210
#        13943
#        28700
#        42493
#        57051
#        70861
#        86039
#        101267
#        116209
#        131140
#        145700
#        160079
#        174947
#        188850
#        201885
#        215662
#        227926
#        240207
#        252974
#        266285
#        277949
#        292083
#
# Disc length: 4071 seconds
#
# Revision: 1
# Processed by: cddbd v1.5.2PL0 Copyright (c) Steve Scherf et al.
# Submitted via: ExactAudioCopyFreeDBPlugin 1.0
#
DISCID=3f0fe516
DTITLE=Jimmie Gordon - Complete Recorded Works Vol, 1 (1934-1936)
DYEAR=1999
DGENRE=Blues
TTITLE0=Neck Bone Blues
TTITLE1=Louise, Louisa Blues
TTITLE2=Bye Bye Baby Blues
TTITLE3=Mean Mistreatin' Blues
TTITLE4=Yo Yo Mama Blues
TTITLE5=Bed Springs Blues
TTITLE6=Black Gal Blues (What Makes Your Head So Hard)
TTITLE7=Gone Gal Blues
TTITLE8=Drive Me Away Blues
TTITLE9=Graveyard Blues (Dead and Gone Blues)
TTITLE10=Bed Springs Blues No. 2
TTITLE11=Soon in the Morning
TTITLE12=I'll Take You Back
TTITLE13=Little Red Dress (Mary Usta Wear)
TTITLE14=Big Four Whistle Blues
TTITLE15=Sweet Jelly Rollin'
TTITLE16=Baker Man
TTITLE17=Drunken Woman Blues
TTITLE18=Don't Take Away My P.W.A.
TTITLE19=She Sells Good Meat
TTITLE20=I'd Rather Drink Muddy Water
TTITLE21=Mother Blues
EXTD=
EXTT0=
EXTT1=
EXTT2=
EXTT3=
EXTT4=
EXTT5=
EXTT6=
EXTT7=
EXTT8=
EXTT9=
EXTT10=
EXTT11=
EXTT12=
EXTT13=
EXTT14=
EXTT15=
EXTT16=
EXTT17=
EXTT18=
EXTT19=
EXTT20=
EXTT21=
PLAYORDER=
